# xmcd CD database file
#
# Track frame offsets:
#	150
#	16582
#	37826
#	57455
#	79198
#	99180
#	114661
#	144928
#	164977
#	197299
#	217380
#	237338
#
# Disc length: 3354 seconds
#
# Revision: 2
# Processed by: cddbd v1.5.2PL0 Copyright (c) Steve Scherf et al.
# Submitted via: CDex 1.70beta2
#
DISCID=9e0d180c
DTITLE=Fiona Joy Hawkins - Portrait of an Angel
DYEAR=1900
DGENRE=New Age
TTITLE0=Thinking of You
TTITLE1=Flight of the Albatross
TTITLE2=Portrait of a Waterfall
TTITLE3=Love in Winter
TTITLE4=View from my Studio
TTITLE5=Escarpment Dreaming
TTITLE6=The Ascent
TTITLE7=Love Forever (Piano Solo)
TTITLE8=Love in Spring
TTITLE9=Love Forever
TTITLE10=Through Cloud
TTITLE11=Angel above my Piano
EXTD=
EXTT0=
EXTT1=
EXTT2=
EXTT3=
EXTT4=
EXTT5=
EXTT6=
EXTT7=
EXTT8=
EXTT9=
EXTT10=
EXTT11=
PLAYORDER=
